<?xml version="1.0" encoding="utf-8"?>
<!-- Svg Vector Icons : http://www.onlinewebfonts.com/icon -->
<!DOCTYPE svg PUBLIC "-//W3C//DTD SVG 1.1//EN" "http://www.w3.org/Graphics/SVG/1.1/DTD/svg11.dtd">
<svg version="1.1" xmlns="http://www.w3.org/2000/svg" xmlns:xlink="http://www.w3.org/1999/xlink" x="0px" y="0px" viewBox="0 0 1000 1000" enable-background="new 0 0 1000 1000" xml:space="preserve">
<metadata> Svg Vector Icons : http://www.onlinewebfonts.com/icon </metadata>
<g><g transform="translate(0.000000,511.000000) scale(0.100000,-0.100000)"><path d="M4772.2,4962.2c-51.6-28-122.5-92.4-159.1-141.9c-60.2-86-64.5-105.3-70.9-324.6l-8.6-234.3l64.5-66.6c81.7-79.5,172-86,255.8-12.9c55.9,47.3,60.2,66.7,70.9,242.9c8.6,148.3,17.2,189.2,43,189.2s34.4-40.8,43-199.9c8.6-178.4,17.2-206.4,62.3-242.9c55.9-45.1,154.7-53.7,221.4-17.2c62.3,34.4,103.2,150.5,103.2,303.1c-2.1,270.8-70.9,412.7-245,500.8C5017.2,5026.6,4896.8,5026.6,4772.2,4962.2z"/><path d="M4709.8,4076.6c-453.5-103.2-829.7-470.7-935-915.7c-21.5-94.6-32.2-255.8-32.2-520.2c0-378.3,0-382.6,53.7-434.2c73.1-75.2,199.9-73.1,270.8,2.1c49.4,53.7,51.6,66.6,62.3,477.2l12.9,423.4l68.8,137.6c277.3,533.1,963,629.8,1369.2,191.3c180.6-195.6,210.6-296.6,219.2-737.3c4.3-199.9,12.9-386.9,17.2-414.8c19.4-81.7,88.1-133.3,178.4-133.3c172,2.1,197.8,66.6,197.8,487.9c0,382.6-30.1,567.4-124.7,767.3c-133.3,283.7-432.1,543.8-728.7,636.3C5150.5,4102.4,4886.1,4117.4,4709.8,4076.6z"/><path d="M1687.7,3627.3c-81.7-36.5-129-137.5-101-219.2c38.7-118.2,79.5-129,894.2-255.8c423.5-64.5,806-118.2,851.2-118.2c163.4,0,247.2,195.6,129,311.7c-47.3,49.4-113.9,62.3-825.4,172c-425.6,64.5-797.5,122.5-827.5,129C1777.9,3651,1724.2,3642.4,1687.7,3627.3z"/><path d="M7336.5,3528.5c-500.8-79.5-821.1-139.7-853.3-159.1c-68.8-45.1-90.3-159-45.1-245c36.5-73.1,70.9-90.3,174.1-90.3c107.5,0,1603.5,236.4,1648.6,260.1c135.4,73.1,88.1,320.3-68.8,350.4C8161.9,3648.8,7777.1,3597.2,7336.5,3528.5z"/><path d="M4836.6,3500.5c-268.7-98.9-496.5-386.9-500.8-634.1c-2.2-77.4,8.6-103.2,58-146.2c122.5-105.3,266.5-43,326.7,144c40.8,122.5,156.9,247.2,249.3,266.5c32.2,8.6,86,45.1,118.2,81.7c45.2,53.7,53.7,81.7,43,141.9C5109.6,3494.1,4987.1,3554.3,4836.6,3500.5z"/><path d="M2485.1,2632.1c-412.7-64.5-776-129-806.1-141.9c-124.7-60.2-133.3-236.4-15-324.6l58-43l823.2,124.7c451.4,68.8,846.9,139.7,877,154.8c66.6,32.2,83.8,68.8,83.8,172c0,105.3-79.5,180.6-187,178.4C3274,2750.3,2900,2696.6,2485.1,2632.1z"/><path d="M6468.1,2690.2c-55.9-58-64.5-77.4-53.7-144c15-88.1,62.3-148.3,129-163.4c165.5-40.8,1622.9-251.5,1663.7-240.7c174.1,43,182.7,311.7,12.9,363.2c-58,17.2-1588.4,249.4-1640,249.4C6554.1,2754.6,6504.6,2724.5,6468.1,2690.2z"/><path d="M3269.7,2028.1c-27.9-21.5-49.4-71-58-122.5c-10.7-81.7,0-98.9,217.1-384.8c124.7-163.3,227.8-307.4,227.8-322.4c0-58-365.4-4167.8-369.7-4172.1c-4.3-2.1-131.1-15-281.6-30.1c-578.2-53.7-1008.1-245-1384.3-614.7c-139.7-135.4-156.9-161.2-156.9-232.1c0-107.5,75.2-187,180.6-187c62.3,0,101,23.6,221.4,131.1c417,376.2,801.7,520.2,1382.1,520.2c466.4,0,730.8-51.6,1676.6-328.9c1064-313.8,1362.8-350.4,1956-236.4c281.6,53.7,503,129,806.1,279.4c281.6,137.6,526.6,292.3,677.1,423.4c79.5,73.1,94.6,98.9,94.6,165.5c0,55.9-15,94.6-58,135.4c-92.4,92.4-169.8,79.5-359-62.3c-320.3-240.8-724.4-436.3-1087.6-533.1c-208.5-53.7-266.6-55.9-266.6-4.3c0,19.3-92.4,1072.6-204.2,2336.5c-111.8,1266-204.2,2332.2-204.2,2373c0,60.2,40.8,126.8,219.2,361.1c182.7,240.7,219.2,300.9,219.2,365.4c0,55.9-15,90.3-60.2,126.8l-58,51.6H4959.2C3424.4,2066.8,3314.8,2064.7,3269.7,2028.1z M6128.5,1688.5c0-6.4-43-66.6-92.4-133.2c-51.6-66.7-109.6-146.2-129-176.3c-34.4-51.6-25.8-174.1,146.2-2095.7c236.4-2652.5,257.9-2888.9,245-2897.5c-17.2-17.2-376.2,30.1-524.5,66.6l-150.5,36.5l-10.8,601.9c-10.7,571.7-12.9,606.2-60.2,692.1c-120.4,227.8-305.2,352.5-550.3,367.5c-277.3,17.2-513.7-122.5-636.2-371.8c-49.4-101-53.7-133.3-60.2-511.6c-8.6-404.1-8.6-406.2-53.7-393.3c-25.8,8.6-165.5,34.4-309.5,62.3c-234.3,40.8-264.4,51.6-264.4,90.3c0,23.6,81.7,982.3,182.7,2128c101,1147.8,182.7,2110.8,182.7,2140.9c0,36.6-43,111.8-118.2,208.5c-64.5,83.8-118.2,161.2-118.2,174.1c0,17.2,348.2,23.7,1160.7,23.7C5606.2,1701.4,6128.5,1695,6128.5,1688.5z M5154.8-2326.7l70.9-77.4v-494.4c0-270.8-8.6-494.4-19.4-494.4c-8.6,0-45.1,8.6-79.5,21.5c-34.4,10.8-146.2,45.1-249.4,75.2l-189.2,55.9v386.9c0,288,8.6,404.1,30.1,460C4793.6-2217.1,5021.5-2180.6,5154.8-2326.7z"/><path d="M4204.7,1368.2c-75.2-73.1-73.1-199.9,2.2-270.8l55.9-51.6h709.3h709.3l51.6,60.2c68.8,81.7,68.8,193.4-2.1,262.2l-51.6,53.7h-711.5h-711.5L4204.7,1368.2z"/><path d="M4718.4,239.8c-247.2-98.9-419.1-341.8-421.3-604c-4.3-208.5,51.6-350.4,195.6-494.4c144-144,264.4-191.3,485.8-191.3c386.9,0,674.9,311.7,651.3,700.7c-17.2,253.6-152.6,460-378.3,571.8C5109.6,291.3,4868.9,297.8,4718.4,239.8z M5111.8-147.1c212.8-129,159.1-451.4-83.8-518c-68.8-17.2-98.9-12.9-180.6,21.5c-77.4,36.5-105.3,62.3-141.9,144c-36.5,86-40.8,111.8-19.3,182.7c12.9,43,58,109.6,98.9,146.2C4877.5-91.3,5004.3-80.5,5111.8-147.1z"/><path d="M2990.2-3844.2c-169.8-25.8-343.9-96.7-494.4-197.8c-193.5-129-247.2-266.5-139.7-371.9c79.5-81.7,197.8-73.1,309.5,19.4c49.4,40.8,144,96.7,212.8,122.5c172,68.8,505.1,68.8,741.6,2.2c187-53.7,253.6-47.3,316,32.2c58,75.2,53.7,161.2-10.7,238.6c-45.1,53.7-90.3,73.1-245,109.6C3456.7-3835.6,3157.9-3816.3,2990.2-3844.2z"/><path d="M8097.4-3992.6c-217.1-133.3-507.3-257.9-834-356.8c-206.3-62.3-253.6-103.2-253.6-219.3c0-105.3,83.8-189.1,187-184.8c197.8,6.4,855.5,270.8,1145.7,457.8c169.8,111.8,191.3,139.7,193.4,238.6c0,101-55.9,167.7-150.5,182.7C8320.9-3865.7,8277.9-3882.9,8097.4-3992.6z"/><path d="M4243.4-4059.2c-109.6-45.1-139.7-230-51.6-309.5c47.3-43,537.4-184.8,638.4-184.8c129,0,210.7,133.3,159.1,260.1c-34.4,83.8-53.7,92.5-378.3,180.6C4314.3-4031.2,4314.3-4031.2,4243.4-4059.2z"/><path d="M6440.1-4478.3c-120.4-118.2-34.4-311.7,135.4-311.7c107.5,0,184.9,77.4,184.9,182.7C6760.4-4441.8,6556.2-4360.1,6440.1-4478.3z"/></g></g>
</svg>